<svg xmlns="http://www.w3.org/2000/svg" width="52" height="52" viewBox="0 0 52 52"><defs><style>.a{fill:#dfeef7;}.b{fill:#fd9;}.b,.c{stroke:#1f3951;stroke-linecap:round;stroke-linejoin:round;stroke-width:2px;}.c{fill:none;}</style></defs><g transform="translate(-1225 -4733)"><path class="a" d="M292.252,275.076h-5.041V271.3l-11.341,7.561,11.341,7.561v-3.78h5.041a6.319,6.319,0,0,1,6.3,6.3c0,3.465-2.94,5.456-6.3,6.3a18.559,18.559,0,0,0-2.33.589,3.9,3.9,0,0,0-1.731,1.244,3.261,3.261,0,0,0-.439,2.9,4.143,4.143,0,0,0,2.785,2.587,10.6,10.6,0,0,0,7.087-.825,14.536,14.536,0,0,0,5.415-4.118l.083-.1a13.843,13.843,0,0,0-10.87-22.438Z" transform="translate(969.887 4478.05)"/><g transform="translate(1226 4734)"><path class="b" d="M260.642,260v10.081H243V260" transform="translate(-226.821 -260)"/><line class="c" x2="6.98" transform="translate(6.98 44.264)"/><path class="c" d="M280,280V260H230v50h36.25A13.79,13.79,0,0,0,280,296.25h0a13.79,13.79,0,0,0-13.75-13.75h-5v-3.75L250,286.25l11.25,7.5V290h5a6.268,6.268,0,0,1,6.25,6.25h0a6.268,6.268,0,0,1-6.25,6.25H260" transform="translate(-230 -260)"/></g></g></svg>