<svg xmlns="http://www.w3.org/2000/svg" width="39.52" height="34.648" viewBox="0 0 39.52 34.648"><defs><style>.a{fill:#dfeef7;}.b{fill:none;stroke:#1f3951;stroke-linecap:round;stroke-linejoin:round;stroke-width:1.5px;}</style></defs><g transform="translate(-1187.25 -776.092)"><path class="a" d="M482.069,275.267v1.894l-18.254,18.262-6.64-6.643,21.2-22.995,3.7,3.7v5.781Z" transform="translate(739.922 515.316)"/><g transform="translate(1188 776.842)"><g transform="translate(12.579 12.168)"><path class="b" d="M466.766,286.7c-.74.74-.446,2.233.656,3.335s2.3,1.7,3.335.656.445-2.233-.656-3.335h0c-1.1-1.1-1.627-2.364-.656-3.335s2.233-.445,3.335.656,1.4,2.6.656,3.335" transform="translate(-466.358 -283.512)"/></g><line class="b" y1="1.2" x2="1.199" transform="translate(18.998 12.137)"/><line class="b" y1="1.199" x2="1.199" transform="translate(12.373 18.762)"/><path class="b" d="M474.439,272.422V274.3L456.351,292.39,442.11,278.147,460.2,260.056h7.6l6.638,6.639v2.564" transform="translate(-442.11 -260.056)"/><path class="b" d="M489.566,273.917a2.286,2.286,0,1,1,0-3.232A2.286,2.286,0,0,1,489.566,273.917Z" transform="translate(-463.068 -264.848)"/><path class="b" d="M492.165,274.771c3.509,1.183,14.369,3.22,11.586,9.259a5.344,5.344,0,0,1-6.48,2.413" transform="translate(-466.202 -267.139)"/></g></g></svg>