<svg xmlns="http://www.w3.org/2000/svg" width="39.5" height="39.5" viewBox="0 0 39.5 39.5"><defs><style>.a{fill:#dfeef7;}.b{fill:none;stroke:#1f3951;stroke-linecap:round;stroke-linejoin:round;stroke-width:1.5px;}</style></defs><g transform="translate(-595.25 -788.25)"><circle class="a" cx="9.5" cy="9.5" r="9.5" transform="translate(612.027 792)"/><g transform="translate(596 789)"><g transform="translate(0 15.712)"><line class="b" x1="3.406" transform="translate(21.483 18.161)"/><path class="b" d="M76,442h3.795a2.145,2.145,0,0,1,1.691.825l3.139,4.015a2.146,2.146,0,0,1,.456,1.322v5.854a1.191,1.191,0,0,1-1.191,1.191h-.46" transform="translate(-52.033 -437.047)"/><line class="b" x1="4.231" transform="translate(3.302 18.161)"/><path class="b" d="M62,436h7.65a1.431,1.431,0,0,1,1.431,1.431v16.73H63.651" transform="translate(-49.603 -436)"/><path class="b" d="M62.6,458.3a3.3,3.3,0,1,1-3.3-3.3A3.3,3.3,0,0,1,62.6,458.3Z" transform="translate(-48.563 -439.316)"/><path class="b" d="M83.6,458.3a3.3,3.3,0,1,1-3.3-3.3A3.3,3.3,0,0,1,83.6,458.3Z" transform="translate(-52.208 -439.316)"/><line class="b" x2="7" transform="translate(0 12.316)"/><line class="b" x2="7" transform="translate(3 8.316)"/><line class="b" x2="7" transform="translate(8.008 4.316)"/><path class="b" d="M85.255,448.476H77V446" transform="translate(-52.208 -437.745)"/></g><g transform="translate(13.235)"><path class="b" d="M63,429.382a12.382,12.382,0,1,1,21.041,8.851" transform="translate(-63 -417)"/><path class="b" d="M78,422v8.255h5.778" transform="translate(-65.618 -417.873)"/></g></g></g></svg>