<svg xmlns="http://www.w3.org/2000/svg" width="15" height="12.183" viewBox="0 0 15 12.183"><defs><style>.a{fill:#406c93;}</style></defs><path class="a" d="M13.458,6.417c.01.133.01.267.01.4a8.687,8.687,0,0,1-8.747,8.747A8.688,8.688,0,0,1,0,14.183a6.36,6.36,0,0,0,.742.038,6.157,6.157,0,0,0,3.817-1.313,3.08,3.08,0,0,1-2.874-2.132,3.877,3.877,0,0,0,.581.048,3.251,3.251,0,0,0,.809-.1A3.075,3.075,0,0,1,.609,7.7V7.664A3.1,3.1,0,0,0,2,8.054a3.079,3.079,0,0,1-.952-4.112A8.738,8.738,0,0,0,7.386,7.159a3.47,3.47,0,0,1-.076-.7,3.077,3.077,0,0,1,5.32-2.1,6.053,6.053,0,0,0,1.951-.742A3.066,3.066,0,0,1,13.23,5.3,6.163,6.163,0,0,0,15,4.827a6.608,6.608,0,0,1-1.542,1.589Z" transform="translate(0 -3.381)"/></svg>