<svg xmlns="http://www.w3.org/2000/svg" width="11.541" height="15" viewBox="0 0 11.541 15"><defs><style>.a{fill:#406c93;}</style></defs><path class="a" d="M6.131.457C3.047.457,0,2.513,0,5.84,0,7.955,1.19,9.158,1.911,9.158c.3,0,.469-.829.469-1.064,0-.279-.712-.875-.712-2.038a4.062,4.062,0,0,1,4.22-4.129c2.047,0,3.561,1.163,3.561,3.3,0,1.6-.64,4.589-2.714,4.589A1.334,1.334,0,0,1,5.347,8.5c0-1.136.793-2.236.793-3.408,0-1.99-2.822-1.629-2.822.775A3.531,3.531,0,0,0,3.606,7.39a32.9,32.9,0,0,0-1.262,6.284c0,.568.081,1.127.135,1.7.1.114.051.1.207.045,1.515-2.074,1.461-2.479,2.146-5.193A2.438,2.438,0,0,0,6.915,11.3c3.192,0,4.625-3.111,4.625-5.915C11.541,2.4,8.962.457,6.131.457Z" transform="translate(0 -0.457)"/></svg>