<svg xmlns="http://www.w3.org/2000/svg" width="15.003" height="15" viewBox="0 0 15.003 15"><defs><style>.a{fill:#406c93;}</style></defs><path class="a" d="M7.5,5.892a3.846,3.846,0,1,0,3.846,3.846A3.84,3.84,0,0,0,7.5,5.892Zm0,6.346a2.5,2.5,0,1,1,2.5-2.5,2.5,2.5,0,0,1-2.5,2.5Zm4.9-6.5a.9.9,0,1,1-.9-.9A.895.895,0,0,1,12.4,5.735Zm2.547.91A4.439,4.439,0,0,0,13.734,3.5,4.468,4.468,0,0,0,10.591,2.29c-1.238-.07-4.95-.07-6.189,0A4.462,4.462,0,0,0,1.259,3.5,4.454,4.454,0,0,0,.047,6.642c-.07,1.238-.07,4.95,0,6.189a4.439,4.439,0,0,0,1.212,3.143A4.474,4.474,0,0,0,4.4,17.185c1.238.07,4.95.07,6.189,0a4.439,4.439,0,0,0,3.143-1.212,4.468,4.468,0,0,0,1.212-3.143c.07-1.238.07-4.947,0-6.185Zm-1.6,7.514a2.531,2.531,0,0,1-1.426,1.426,16.531,16.531,0,0,1-4.422.3,16.66,16.66,0,0,1-4.422-.3,2.531,2.531,0,0,1-1.426-1.426,16.531,16.531,0,0,1-.3-4.422,16.66,16.66,0,0,1,.3-4.422A2.531,2.531,0,0,1,3.077,3.89a16.531,16.531,0,0,1,4.422-.3,16.66,16.66,0,0,1,4.422.3,2.531,2.531,0,0,1,1.426,1.426,16.531,16.531,0,0,1,.3,4.422A16.522,16.522,0,0,1,13.345,14.159Z" transform="translate(0.005 -2.238)"/></svg>