<svg xmlns="http://www.w3.org/2000/svg" width="15" height="10.547" viewBox="0 0 15 10.547"><defs><style>.a{fill:#406c93;}</style></defs><path class="a" d="M15.737,6.15A1.885,1.885,0,0,0,14.41,4.815,44.541,44.541,0,0,0,8.55,4.5a44.541,44.541,0,0,0-5.86.315A1.885,1.885,0,0,0,1.363,6.15,19.772,19.772,0,0,0,1.05,9.784a19.772,19.772,0,0,0,.313,3.634A1.857,1.857,0,0,0,2.69,14.731a44.541,44.541,0,0,0,5.86.315,44.541,44.541,0,0,0,5.86-.315,1.857,1.857,0,0,0,1.326-1.313,19.772,19.772,0,0,0,.313-3.634,19.772,19.772,0,0,0-.313-3.634ZM7.016,12.014V7.554l3.92,2.23-3.92,2.23Z" transform="translate(-1.05 -4.5)"/></svg>