<svg xmlns="http://www.w3.org/2000/svg" width="15" height="9.375" viewBox="0 0 15 9.375"><defs><style>.a{fill:#406c93;}</style></defs><path class="a" d="M10.013,8.516a3.976,3.976,0,0,1,.077.78,4.324,4.324,0,0,1-4.5,4.579,4.688,4.688,0,0,1,0-9.375,4.477,4.477,0,0,1,3.14,1.228L7.455,6.949a2.632,2.632,0,0,0-1.867-.723,2.961,2.961,0,0,0,0,5.922,2.539,2.539,0,0,0,2.66-2.021H5.587V8.516h4.425Zm4.527.157V7.313H13.172V8.673H11.811V10.04h1.361V11.4h1.367V10.04H15.9V8.673H14.539Z" transform="translate(-0.9 -4.5)"/></svg>